<svg width="151" height="151" viewBox="0 0 151 151" fill="none" xmlns="http://www.w3.org/2000/svg">
<path d="M58.9106 125.268C67.7102 125.268 76.1493 121.772 82.3715 115.55C88.5937 109.328 92.0894 100.889 92.0894 92.0894C92.0894 83.2898 88.5937 74.8507 82.3715 68.6285C76.1493 62.4062 67.7102 58.9106 58.9106 58.9106C50.1111 58.9106 41.672 62.4062 35.4498 68.6285C29.2275 74.8507 25.7319 83.2898 25.7319 92.0894C25.7319 100.889 29.2275 109.328 35.4498 115.55C41.672 121.772 50.1111 125.268 58.9106 125.268ZM58.9106 133.563C47.9112 133.563 37.3623 129.193 29.5845 121.415C21.8068 113.638 17.4373 103.089 17.4373 92.0894C17.4373 81.0899 21.8068 70.541 29.5845 62.7632C37.3623 54.9855 47.9112 50.616 58.9106 50.616C69.9101 50.616 80.459 54.9855 88.2368 62.7632C96.0145 70.541 100.384 81.0899 100.384 92.0894C100.384 103.089 96.0145 113.638 88.2368 121.415C80.459 129.193 69.9101 133.563 58.9106 133.563ZM96.2367 17.4373H129.415C132.18 17.4373 133.563 18.8197 133.563 21.5846C133.563 24.3495 132.18 25.7319 129.415 25.7319H96.2367C93.4718 25.7319 92.0894 24.3495 92.0894 21.5846C92.0894 18.8197 93.4718 17.4373 96.2367 17.4373Z" fill="white" stroke="white" stroke-width="2.304"/>
<path d="M129.415 17.4373C132.18 17.4373 133.563 18.8197 133.563 21.5846V54.7633C133.563 57.5282 132.18 58.9106 129.415 58.9106C126.651 58.9106 125.268 57.5282 125.268 54.7633V21.5846C125.268 18.8197 126.651 17.4373 129.415 17.4373Z" fill="white" stroke="white" stroke-width="2.304"/>
<path d="M89.1863 67.6699L83.3302 61.8055L126.479 18.6484L132.352 24.5209L89.1863 67.6699Z" fill="white" stroke="white" stroke-width="2.304"/>
</svg>
